<mxfile host="Electron" modified="2023-10-31T11:08:46.943Z" agent="Mozilla/5.0 (Windows NT 10.0; Win64; x64) AppleWebKit/537.36 (KHTML, like Gecko) draw.io/21.6.8 Chrome/114.0.5735.289 Electron/25.5.0 Safari/537.36" etag="62j753DuB9cj3EJgay0T" version="21.6.8" type="device">
  <diagram name="Page-1" id="Dv746sf2fZc_Bfypyb-G">
    <mxGraphModel dx="660" dy="1029" grid="1" gridSize="10" guides="1" tooltips="1" connect="1" arrows="1" fold="1" page="1" pageScale="1" pageWidth="2336" pageHeight="1654" math="0" shadow="0">
      <root>
        <mxCell id="0" />
        <mxCell id="1" parent="0" />
        <mxCell id="G1ZFaNIgqCWbsrs5TP3c-1" value="&lt;p style=&quot;margin:0px;margin-top:4px;margin-left:10px;text-align:left;&quot;&gt;&lt;b&gt;AD &lt;/b&gt;GameLeader_UC051&lt;/p&gt;" style="html=1;shape=mxgraph.sysml.package;html=1;overflow=fill;whiteSpace=wrap;labelX=151.67;" vertex="1" parent="1">
          <mxGeometry x="290" y="240" width="390" height="380" as="geometry" />
        </mxCell>
        <mxCell id="G1ZFaNIgqCWbsrs5TP3c-2" style="edgeStyle=orthogonalEdgeStyle;rounded=0;orthogonalLoop=1;jettySize=auto;html=1;" edge="1" parent="1" source="G1ZFaNIgqCWbsrs5TP3c-3" target="G1ZFaNIgqCWbsrs5TP3c-5">
          <mxGeometry relative="1" as="geometry" />
        </mxCell>
        <mxCell id="G1ZFaNIgqCWbsrs5TP3c-3" value="" style="shape=ellipse;html=1;fillColor=strokeColor;strokeWidth=2;verticalLabelPosition=bottom;verticalAlignment=top;perimeter=ellipsePerimeter;" vertex="1" parent="1">
          <mxGeometry x="345" y="300" width="40" height="40" as="geometry" />
        </mxCell>
        <mxCell id="G1ZFaNIgqCWbsrs5TP3c-16" style="edgeStyle=orthogonalEdgeStyle;rounded=0;orthogonalLoop=1;jettySize=auto;html=1;" edge="1" parent="1" source="G1ZFaNIgqCWbsrs5TP3c-5" target="G1ZFaNIgqCWbsrs5TP3c-15">
          <mxGeometry relative="1" as="geometry" />
        </mxCell>
        <mxCell id="G1ZFaNIgqCWbsrs5TP3c-5" value="Start UC051" style="html=1;shape=mxgraph.sysml.accEvent;strokeWidth=2;whiteSpace=wrap;align=center;" vertex="1" parent="1">
          <mxGeometry x="310" y="390" width="110" height="60" as="geometry" />
        </mxCell>
        <mxCell id="G1ZFaNIgqCWbsrs5TP3c-13" style="edgeStyle=orthogonalEdgeStyle;rounded=0;orthogonalLoop=1;jettySize=auto;html=1;" edge="1" parent="1" source="G1ZFaNIgqCWbsrs5TP3c-14" target="G1ZFaNIgqCWbsrs5TP3c-5">
          <mxGeometry relative="1" as="geometry" />
        </mxCell>
        <mxCell id="G1ZFaNIgqCWbsrs5TP3c-14" value="GameOver&lt;br&gt;to UC052" style="html=1;shape=mxgraph.sysml.sendSigAct;strokeWidth=2;whiteSpace=wrap;align=center;" vertex="1" parent="1">
          <mxGeometry x="570" y="390" width="100" height="60" as="geometry" />
        </mxCell>
        <mxCell id="G1ZFaNIgqCWbsrs5TP3c-19" style="edgeStyle=orthogonalEdgeStyle;rounded=0;orthogonalLoop=1;jettySize=auto;html=1;" edge="1" parent="1" source="G1ZFaNIgqCWbsrs5TP3c-15" target="G1ZFaNIgqCWbsrs5TP3c-18">
          <mxGeometry relative="1" as="geometry" />
        </mxCell>
        <mxCell id="G1ZFaNIgqCWbsrs5TP3c-15" value="Display Game&lt;br&gt;timer" style="shape=rect;html=1;rounded=1;whiteSpace=wrap;align=center;" vertex="1" parent="1">
          <mxGeometry x="305" y="500" width="120" height="60" as="geometry" />
        </mxCell>
        <mxCell id="G1ZFaNIgqCWbsrs5TP3c-20" value="[GameTimer == 0]" style="edgeStyle=orthogonalEdgeStyle;rounded=0;orthogonalLoop=1;jettySize=auto;html=1;" edge="1" parent="1" source="G1ZFaNIgqCWbsrs5TP3c-18" target="G1ZFaNIgqCWbsrs5TP3c-14">
          <mxGeometry x="-0.4444" y="10" relative="1" as="geometry">
            <mxPoint as="offset" />
          </mxGeometry>
        </mxCell>
        <mxCell id="G1ZFaNIgqCWbsrs5TP3c-21" value="[else]" style="edgeStyle=orthogonalEdgeStyle;rounded=0;orthogonalLoop=1;jettySize=auto;html=1;" edge="1" parent="1" source="G1ZFaNIgqCWbsrs5TP3c-18" target="G1ZFaNIgqCWbsrs5TP3c-15">
          <mxGeometry x="-0.1795" y="-10" relative="1" as="geometry">
            <Array as="points">
              <mxPoint x="495" y="590" />
              <mxPoint x="365" y="590" />
            </Array>
            <mxPoint as="offset" />
          </mxGeometry>
        </mxCell>
        <mxCell id="G1ZFaNIgqCWbsrs5TP3c-18" value="" style="rhombus;whiteSpace=wrap;html=1;" vertex="1" parent="1">
          <mxGeometry x="470" y="505" width="50" height="50" as="geometry" />
        </mxCell>
      </root>
    </mxGraphModel>
  </diagram>
</mxfile>
